{
  "source": "C:\\Users\\Peter\\Desktop\\stuff\\MIUN\\quantitative_research\\video_compression\\videos\\BVI-HD\\BVI-HD_CDVL_videos\\ORIG\\Typing_1920x1080_60fps.mp4",
  "output": "C:\\Users\\Peter\\Desktop\\stuff\\MIUN\\quantitative_research\\video_compression\\compressed_videos\\BVI-HD\\vp9\\4\\Typing_1920x1080_60fps_vp9.webm",
  "codec": "vp9",
  "ok": "Input #0, mov,mp4,m4a,3gp,3g2,mj2, from 'C:\\Users\\Peter\\Desktop\\stuff\\MIUN\\quantitative_research\\video_compression\\videos\\BVI-HD\\BVI-HD_CDVL_videos\\ORIG\\Typing_1920x1080_60fps.mp4':\n  Metadata:\n    major_brand     : isom\n    minor_version   : 512\n    compatible_brands: isomiso2avc1mp41\n    encoder         : Lavf54.28.101\n  Duration: 00:00:05.00, start: 0.000000, bitrate: 203453 kb/s\n  Stream #0:0[0x1](und): Video: h264 (High 4:4:4 Predictive) (avc1 / 0x31637661), yuv420p(progressive), 1920x1080, 203448 kb/s, 60 fps, 60 tbr, 60 tbn (default)\n    Metadata:\n      handler_name    : VideoHandler\n      vendor_id       : [0][0][0][0]\n[out#0/webm @ 00000205201a9880] Codec AVOption b:a (set bitrate (in bits/s)) has not been used for any stream. The most likely reason is either wrong type (e.g. a video option with no video streams) or that it is a private option of some decoder which was not actually used for any stream.\nStream mapping:\n  Stream #0:0 -> #0:0 (h264 (native) -> vp9 (libvpx-vp9))\nPress [q] to stop, [?] for help\n[libvpx-vp9 @ 0000020520b61b80] v1.15.2-100-g40561f514\nOutput #0, webm, to 'C:\\Users\\Peter\\Desktop\\stuff\\MIUN\\quantitative_research\\video_compression\\compressed_videos\\BVI-HD\\vp9\\4\\Typing_1920x1080_60fps_vp9.webm':\n  Metadata:\n    major_brand     : isom\n    minor_version   : 512\n    compatible_brands: isomiso2avc1mp41\n    encoder         : Lavf62.3.100\n  Stream #0:0(und): Video: vp9, yuv420p(tv, progressive), 1920x1080, q=2-31, 4000 kb/s, 60 fps, 1k tbn (default)\n    Metadata:\n      encoder         : Lavc62.11.100 libvpx-vp9\n      handler_name    : VideoHandler\n      vendor_id       : [0][0][0][0]\n    Side data:\n      cpb: bitrate max/min/avg: 0/0/0 buffer size: 4000000 vbv_delay: N/A\nframe=    2 fps=0.0 q=48.0 size=       1KiB time=00:00:00.03 bitrate= 151.9kbits/s speed=0.0634x elapsed=0:00:00.52    \nframe=    9 fps=8.6 q=32.0 size=       1KiB time=00:00:00.15 bitrate=  33.8kbits/s speed=0.144x elapsed=0:00:01.04    \nframe=   14 fps=9.0 q=31.0 size=       1KiB time=00:00:00.23 bitrate=  21.7kbits/s speed=0.149x elapsed=0:00:01.56    \nframe=   19 fps=9.1 q=31.0 size=       1KiB time=00:00:00.31 bitrate=  16.0kbits/s speed=0.151x elapsed=0:00:02.09    \nframe=   24 fps=9.2 q=31.0 size=       1KiB time=00:00:00.40 bitrate=  12.7kbits/s speed=0.153x elapsed=0:00:02.61    \nframe=   30 fps=9.5 q=30.0 size=       1KiB time=00:00:00.50 bitrate=  10.1kbits/s speed=0.159x elapsed=0:00:03.14    \nframe=   35 fps=9.5 q=30.0 size=       1KiB time=00:00:00.58 bitrate=   8.7kbits/s speed=0.159x elapsed=0:00:03.67    \nframe=   39 fps=9.3 q=30.0 size=       1KiB time=00:00:00.65 bitrate=   7.8kbits/s speed=0.155x elapsed=0:00:04.18    \nframe=   46 fps=9.7 q=28.0 size=       1KiB time=00:00:00.76 bitrate=   6.6kbits/s speed=0.162x elapsed=0:00:04.72    \nframe=   50 fps=9.5 q=28.0 size=       1KiB time=00:00:00.83 bitrate=   6.1kbits/s speed=0.158x elapsed=0:00:05.25    \nframe=   56 fps=9.7 q=28.0 size=       1KiB time=00:00:00.93 bitrate=   5.4kbits/s speed=0.162x elapsed=0:00:05.76    \nframe=   60 fps=9.5 q=28.0 size=       1KiB time=00:00:01.00 bitrate=   5.1kbits/s speed=0.159x elapsed=0:00:06.28    \nframe=   66 fps=9.7 q=28.0 size=       1KiB time=00:00:01.10 bitrate=   4.6kbits/s speed=0.162x elapsed=0:00:06.80    \nframe=   71 fps=9.7 q=30.0 size=       1KiB time=00:00:01.18 bitrate=   4.3kbits/s speed=0.162x elapsed=0:00:07.30    \nframe=   76 fps=9.7 q=30.0 size=       1KiB time=00:00:01.26 bitrate=   4.0kbits/s speed=0.162x elapsed=0:00:07.83    \nframe=   82 fps=9.8 q=29.0 size=       1KiB time=00:00:01.36 bitrate=   3.7kbits/s speed=0.164x elapsed=0:00:08.35    \nframe=   87 fps=9.8 q=31.0 size=       1KiB time=00:00:01.45 bitrate=   3.5kbits/s speed=0.163x elapsed=0:00:08.88    \nframe=   93 fps=9.9 q=27.0 size=       1KiB time=00:00:01.55 bitrate=   3.3kbits/s speed=0.165x elapsed=0:00:09.40    \nframe=   97 fps=9.8 q=12.0 size=       1KiB time=00:00:01.61 bitrate=   3.1kbits/s speed=0.163x elapsed=0:00:09.91    \nframe=  103 fps=9.9 q=31.0 size=       1KiB time=00:00:01.71 bitrate=   2.9kbits/s speed=0.164x elapsed=0:00:10.43    \nframe=  108 fps=9.8 q=29.0 size=       1KiB time=00:00:01.80 bitrate=   2.8kbits/s speed=0.164x elapsed=0:00:10.97    \nframe=  114 fps=9.9 q=32.0 size=       1KiB time=00:00:01.90 bitrate=   2.7kbits/s speed=0.165x elapsed=0:00:11.48    \nframe=  119 fps=9.9 q=14.0 size=       1KiB time=00:00:01.98 bitrate=   2.6kbits/s speed=0.165x elapsed=0:00:12.00    \nframe=  125 fps= 10 q=30.0 size=       1KiB time=00:00:02.08 bitrate=   2.4kbits/s speed=0.166x elapsed=0:00:12.54    \nframe=  131 fps= 10 q=29.0 size=     768KiB time=00:00:02.18 bitrate=2881.6kbits/s speed=0.167x elapsed=0:00:13.05    \nframe=  138 fps= 10 q=30.0 size=     768KiB time=00:00:02.30 bitrate=2735.4kbits/s speed=0.169x elapsed=0:00:13.58    \nframe=  143 fps= 10 q=28.0 size=     768KiB time=00:00:02.38 bitrate=2639.8kbits/s speed=0.169x elapsed=0:00:14.11    \nframe=  149 fps= 10 q=28.0 size=     768KiB time=00:00:02.48 bitrate=2533.5kbits/s speed=0.169x elapsed=0:00:14.65    \nframe=  154 fps= 10 q=25.0 size=     768KiB time=00:00:02.56 bitrate=2451.2kbits/s speed=0.169x elapsed=0:00:15.19    \nframe=  159 fps= 10 q=25.0 size=     768KiB time=00:00:02.65 bitrate=2374.1kbits/s speed=0.169x elapsed=0:00:15.71    \nframe=  163 fps= 10 q=25.0 size=     768KiB time=00:00:02.71 bitrate=2315.9kbits/s speed=0.167x elapsed=0:00:16.25    \nframe=  169 fps= 10 q=25.0 size=     768KiB time=00:00:02.81 bitrate=2233.7kbits/s speed=0.168x elapsed=0:00:16.78    \nframe=  174 fps= 10 q=24.0 size=     768KiB time=00:00:02.90 bitrate=2169.5kbits/s speed=0.167x elapsed=0:00:17.32    \nframe=  179 fps= 10 q=25.0 size=     768KiB time=00:00:02.98 bitrate=2108.9kbits/s speed=0.167x elapsed=0:00:17.84    \nframe=  184 fps= 10 q=26.0 size=     768KiB time=00:00:03.06 bitrate=2051.6kbits/s speed=0.167x elapsed=0:00:18.38    \nframe=  188 fps=9.9 q=12.0 size=     768KiB time=00:00:03.13 bitrate=2007.9kbits/s speed=0.166x elapsed=0:00:18.90    \nframe=  195 fps= 10 q=27.0 size=     768KiB time=00:00:03.23 bitrate=1945.8kbits/s speed=0.166x elapsed=0:00:19.43    \nframe=  199 fps= 10 q=29.0 size=     768KiB time=00:00:03.31 bitrate=1896.9kbits/s speed=0.166x elapsed=0:00:19.96    \nframe=  204 fps=9.9 q=26.0 size=     768KiB time=00:00:03.40 bitrate=1850.4kbits/s speed=0.166x elapsed=0:00:20.51    \nframe=  208 fps=9.9 q=29.0 size=     768KiB time=00:00:03.45 bitrate=1823.6kbits/s speed=0.164x elapsed=0:00:21.06    \nframe=  211 fps=9.7 q=27.0 size=     768KiB time=00:00:03.51 bitrate=1789.0kbits/s speed=0.162x elapsed=0:00:21.64    \nframe=  213 fps=9.6 q=28.0 size=     768KiB time=00:00:03.55 bitrate=1772.2kbits/s speed=0.16x elapsed=0:00:22.22    \nframe=  217 fps=9.5 q=30.0 size=     768KiB time=00:00:03.61 bitrate=1739.6kbits/s speed=0.159x elapsed=0:00:22.76    \nframe=  221 fps=9.5 q=28.0 size=     768KiB time=00:00:03.68 bitrate=1708.1kbits/s speed=0.158x elapsed=0:00:23.28    \nframe=  223 fps=9.4 q=29.0 size=     768KiB time=00:00:03.71 bitrate=1692.8kbits/s speed=0.156x elapsed=0:00:23.80    \nframe=  229 fps=9.4 q=27.0 size=     768KiB time=00:00:03.81 bitrate=1648.4kbits/s speed=0.157x elapsed=0:00:24.34    \nframe=  234 fps=9.4 q=27.0 size=     768KiB time=00:00:03.90 bitrate=1613.2kbits/s speed=0.157x elapsed=0:00:24.88    \nframe=  237 fps=9.3 q=29.0 size=     768KiB time=00:00:03.95 bitrate=1592.8kbits/s speed=0.155x elapsed=0:00:25.43    \nframe=  242 fps=9.3 q=27.0 size=     768KiB time=00:00:04.03 bitrate=1559.9kbits/s speed=0.155x elapsed=0:00:25.96    \nframe=  245 fps=9.2 q=29.0 size=     768KiB time=00:00:04.08 bitrate=1540.8kbits/s speed=0.154x elapsed=0:00:26.49    \nframe=  249 fps=9.2 q=27.0 size=     768KiB time=00:00:04.15 bitrate=1516.0kbits/s speed=0.154x elapsed=0:00:27.01    \nframe=  253 fps=9.2 q=29.0 size=     768KiB time=00:00:04.21 bitrate=1492.0kbits/s speed=0.153x elapsed=0:00:27.55    \nframe=  256 fps=9.1 q=27.0 size=     768KiB time=00:00:04.26 bitrate=1474.6kbits/s speed=0.152x elapsed=0:00:28.09    \nframe=  262 fps=9.1 q=28.0 size=    2048KiB time=00:00:04.36 bitrate=3842.1kbits/s speed=0.152x elapsed=0:00:28.66    \nframe=  268 fps=9.2 q=28.0 size=    2048KiB time=00:00:04.45 bitrate=3770.2kbits/s speed=0.152x elapsed=0:00:29.20    \nframe=  270 fps=9.1 q=29.0 size=    2048KiB time=00:00:04.50 bitrate=3728.3kbits/s speed=0.151x elapsed=0:00:29.79    \nframe=  275 fps=9.1 q=29.0 size=    2048KiB time=00:00:04.56 bitrate=3673.8kbits/s speed=0.151x elapsed=0:00:30.33    \nframe=  276 fps=8.9 q=28.0 size=    2048KiB time=00:00:04.60 bitrate=3647.2kbits/s speed=0.149x elapsed=0:00:30.92    \nframe=  276 fps=8.8 q=28.0 size=    2048KiB time=00:00:04.60 bitrate=3647.2kbits/s speed=0.146x elapsed=0:00:31.47    \nframe=  276 fps=8.6 q=28.0 size=    2048KiB time=00:00:04.60 bitrate=3647.2kbits/s speed=0.144x elapsed=0:00:32.00    \nframe=  276 fps=8.5 q=28.0 size=    2048KiB time=00:00:04.60 bitrate=3647.2kbits/s speed=0.141x elapsed=0:00:32.53    \nframe=  276 fps=8.3 q=28.0 size=    2048KiB time=00:00:04.60 bitrate=3647.2kbits/s speed=0.139x elapsed=0:00:33.08    \nframe=  276 fps=8.2 q=28.0 size=    2048KiB time=00:00:04.60 bitrate=3647.2kbits/s speed=0.137x elapsed=0:00:33.66    \n[out#0/webm @ 00000205201a9880] video:2524KiB audio:0KiB subtitle:0KiB other streams:0KiB global headers:0KiB muxing overhead: 0.110280%\nframe=  300 fps=8.8 q=29.0 Lsize=    2527KiB time=00:00:05.00 bitrate=4139.5kbits/s speed=0.147x elapsed=0:00:33.94    \n",
  "seconds": 34.24848914146423,
  "probe_out": {}
}